<?xml version="1.0" encoding="UTF-8" standalone="no"?>
<svg
   height="1024"
   width="1024"
   version="1.1"
   id="svg47"
   sodipodi:docname="godot-valet-1024x1024.svg"
   inkscape:version="1.2.2 (732a01da63, 2022-12-09)"
   xmlns:inkscape="http://www.inkscape.org/namespaces/inkscape"
   xmlns:sodipodi="http://sodipodi.sourceforge.net/DTD/sodipodi-0.dtd"
   xmlns="http://www.w3.org/2000/svg"
   xmlns:svg="http://www.w3.org/2000/svg">
  <defs
     id="defs51" />
  <sodipodi:namedview
     id="namedview49"
     pagecolor="#ffffff"
     bordercolor="#000000"
     borderopacity="0.25"
     inkscape:showpageshadow="2"
     inkscape:pageopacity="0.0"
     inkscape:pagecheckerboard="0"
     inkscape:deskcolor="#d1d1d1"
     showgrid="false"
     inkscape:zoom="0.7989478"
     inkscape:cx="628.95223"
     inkscape:cy="298.51763"
     inkscape:window-width="2560"
     inkscape:window-height="1369"
     inkscape:window-x="1912"
     inkscape:window-y="-8"
     inkscape:window-maximized="1"
     inkscape:current-layer="svg47" />
  <path
     d="m 878.51653,657.28066 c 0,0 -1.21756,-7.47023 -1.92937,-7.40279 l -135.55043,13.07851 c -10.78574,1.04148 -19.16258,9.6431 -19.91934,20.45132 l -3.72388,53.37425 -104.86782,7.48146 -7.13305,-48.37287 c -1.58845,-10.75952 -10.9843,-18.87037 -21.85995,-18.87037 H 440.46708 c -10.87191,0 -20.26776,8.11085 -21.85621,18.87037 l -7.1368,48.37287 -104.86782,-7.48146 -3.72387,-53.37425 c -0.75677,-10.81196 -9.1336,-19.41358 -19.91935,-20.45507 L 147.34517,649.87787 c -0.70057,-0.0674 -1.21382,7.41028 -1.91439,7.41028 l -0.18357,29.33392 114.8556,18.52195 3.76133,53.85004 c 0.76051,10.90187 9.55694,19.71704 20.46631,20.50002 l 144.42554,10.30247 c 0.54696,0.0375 1.08644,0.0599 1.62591,0.0599 10.85318,0 20.23404,-8.1146 21.82249,-18.87411 l 7.3391,-49.77401 h 104.91653 l 7.3391,49.77401 c 1.5847,10.75577 10.9768,18.87036 21.84496,18.87036 0.53199,0 1.06397,-0.0187 1.58471,-0.0562 l 144.44427,-10.30247 c 10.90562,-0.78298 19.7058,-9.59815 20.46631,-20.50002 l 3.75759,-53.85004 114.80689,-18.60437 z"
     fill="#ffffff"
     id="path31"
     style="stroke-width:3.74635" />
  <path
     d="m 145.42903,436.09226 v 178.00406 22.60923 20.57495 c 0.4046,0.004 0.80921,0.0187 1.21007,0.0562 l 135.60288,13.07476 c 7.10308,0.68558 12.67016,6.40251 13.16467,13.52057 l 4.18093,59.85918 118.28725,8.44053 8.14831,-55.24742 c 1.05647,-7.16302 7.20049,-12.4716 14.44593,-12.4716 h 143.06561 c 7.24169,0 13.38571,5.30858 14.44218,12.4716 l 8.14831,55.24742 118.291,-8.44053 4.17718,-59.85918 c 0.49826,-7.11806 6.06159,-12.83125 13.16467,-13.52057 L 877.30845,657.3367 c 0.40086,-0.0375 0.80172,-0.0524 1.20633,-0.0562 v -17.64905 l 0.0562,-0.0187 V 436.09226 c 19.09485,-24.03835 37.17589,-50.55403 51.02903,-72.86276 -21.17062,-36.03989 -47.11035,-68.24726 -74.83708,-98.08694 -25.71495,12.94364 -50.69186,27.60686 -74.28263,43.2104 -11.80475,-11.73356 -25.10054,-21.33171 -38.16032,-31.36444 -12.83125,-10.30621 -27.29216,-17.86259 -41.00754,-26.66652 4.08352,-30.40912 6.1028,-60.3462 6.91576,-91.59076 -35.38802,-17.81015 -73.12501,-29.61864 -111.29656,-38.10038 -15.24016,25.6138 -29.17658,53.35177 -41.31475,80.46785 -14.39348,-2.40515 -28.85439,-3.29679 -43.33403,-3.46912 v -0.0225 c -0.10115,0 -0.19481,0.0225 -0.28098,0.0225 -0.0899,0 -0.18357,-0.0225 -0.27348,-0.0225 v 0.0225 c -14.50587,0.17233 -28.95554,1.06397 -43.35276,3.46912 -12.13068,-27.11608 -26.05961,-54.85405 -41.32224,-80.46785 -38.15283,8.48174 -75.89356,20.29023 -111.27783,38.10038 0.80921,31.24456 2.82849,61.18164 6.92325,91.59076 -13.74161,8.80393 -28.18379,16.36031 -41.01878,26.66652 -13.04105,10.03273 -26.35932,19.63088 -38.16782,31.36444 -23.59076,-15.60354 -48.56018,-30.26676 -74.28262,-43.2104 -27.72674,29.83968 -53.65148,62.04705 -74.829594,98.08694 16.643754,26.12589 34.496274,52.38479 51.029034,72.86276 z"
     fill="#478cbf"
     id="path33"
     style="stroke-width:3.74635" />
  <path
     d="m 756.8643,698.29454 -4.19966,60.17762 c -0.50576,7.25293 -6.27514,13.02606 -13.52807,13.5468 l -144.44052,10.30621 c -0.35216,0.0262 -0.70432,0.0375 -1.05273,0.0375 -7.178,0 -13.37072,-5.26737 -14.43094,-12.47534 L 570.9292,713.71451 H 453.07278 l -8.28318,56.17278 c -1.11266,7.56013 -7.87108,12.99608 -15.48366,12.43788 L 284.86542,772.01896 c -7.25293,-0.52074 -13.02231,-6.29387 -13.52807,-13.5468 l -4.19966,-60.17762 -121.93245,-11.75605 c 0.0562,13.10473 0.22478,27.46075 0.22478,30.31921 0,128.77703 163.35959,190.67423 366.32184,191.38603 h 0.24726 0.25101 c 202.96225,-0.7118 366.26564,-62.609 366.26564,-191.38603 0,-2.91091 0.17608,-17.20698 0.23602,-30.31921 z"
     fill="#478cbf"
     id="path35"
     style="stroke-width:3.74635" />
  <path
     d="m 401.49336,525.87992 c 0,45.15101 -36.58311,81.72662 -81.71913,81.72662 -45.11355,0 -81.7079,-36.57561 -81.7079,-81.72662 0,-45.12104 36.59435,-81.67792 81.7079,-81.67792 45.13602,0 81.71913,36.55688 81.71913,81.67792"
     fill="#ffffff"
     id="path37"
     style="stroke-width:3.74635" />
  <path
     d="m 381.83017,530.72709 c 0,29.94832 -24.2726,54.22093 -54.2434,54.22093 -29.95581,0 -54.2434,-24.27261 -54.2434,-54.22093 0,-29.94832 24.28759,-54.2434 54.2434,-54.2434 29.9708,0 54.2434,24.29508 54.2434,54.2434"
     fill="#414042"
     id="path39"
     style="stroke-width:3.74635" />
  <path
     d="m 511.99402,615.04157 c -14.52834,0 -26.30312,-10.70707 -26.30312,-23.90546 v -75.23045 c 0,-13.18715 11.77478,-23.90546 26.30312,-23.90546 14.52835,0 26.32935,10.71831 26.32935,23.90546 v 75.23045 c 0,13.19839 -11.801,23.90546 -26.32935,23.90546"
     fill="#ffffff"
     id="path41"
     style="stroke-width:3.74635" />
  <path
     d="m 622.50835,525.87992 c 0,45.15101 36.58311,81.72662 81.72663,81.72662 45.1098,0 81.7004,-36.57561 81.7004,-81.72662 0,-45.12104 -36.5906,-81.67792 -81.7004,-81.67792 -45.14352,0 -81.72663,36.55688 -81.72663,81.67792"
     fill="#ffffff"
     id="path43"
     style="stroke-width:3.74635" />
  <path
     d="m 642.1765,530.72709 c 0,29.94832 24.26511,54.22093 54.21343,54.22093 29.9783,0 54.2434,-24.27261 54.2434,-54.22093 0,-29.94832 -24.2651,-54.2434 -54.2434,-54.2434 -29.94832,0 -54.21343,24.29508 -54.21343,54.2434"
     fill="#414042"
     id="path45"
     style="stroke-width:3.74635" />
  <path
     id="path209"
     inkscape:transform-center-x="15.992076"
     inkscape:transform-center-y="7.7646542"
     transform="matrix(2.1389497,0,0,2.1235653,-309.14684,-225.52825)"
     d="m 521.52386,181.26703 76.66853,57.27524 -41.67299,98.74299 -191.30449,-137.78941 82.03832,-68.97488 z"
     sodipodi:nodetypes="cccccc"
     style="fill:#aa0000" />
</svg>
